<?xml version="1.0" encoding="iso-8859-1"?>
<!-- Generator: Adobe Illustrator 18.0.0, SVG Export Plug-In . SVG Version: 6.00 Build 0)  -->
<!DOCTYPE svg PUBLIC "-//W3C//DTD SVG 1.1//EN" "http://www.w3.org/Graphics/SVG/1.1/DTD/svg11.dtd">
<svg version="1.1" id="Capa_1" xmlns="http://www.w3.org/2000/svg" xmlns:xlink="http://www.w3.org/1999/xlink" x="0px" y="0px"
	 viewBox="0 0 462.323 462.323" style="enable-background:new 0 0 462.323 462.323;" xml:space="preserve">
<g>
	<path d="M429.447,197.71c-27.75-27.75-65.93-55.043-104.75-74.881c-30.781-15.73-76.876-34.481-121.667-34.481
		c-27.104,0-53.769,8.193-76.623,23.326l0.815-32.817l-8.252,0.051c-19.077,0.119-37.187,7.365-50.993,20.403
		c-13.015,12.291-21.221,28.771-23.283,46.625C17.788,157.877,0,184.582,0,213.707v35.61h111.967
		c3.623,2.435,5.871,6.774,6.024,11.772c-15.371,4.059-26.192,18.824-26.192,37.228v8H134h21h36h14h56v-44.685
		c0-4.043,2.405-7.263,5.841-9.394c2.612-1.62,5.682-2.347,8.756-2.333l25.278,0.117c-0.296,0.284-0.6,0.556-0.891,0.847
		c-14.134,14.135-21.918,32.927-21.918,52.917s7.784,38.783,21.919,52.919c17.846,17.84,41.288,26.761,64.73,26.76
		c23.442,0,46.885-8.92,64.732-26.761C473.281,312.87,473.281,241.545,429.447,197.71z M147,267.791
		c-6.309,5.376-10.712,13.215-12.321,22.527h-25.716c2.335-7.762,8.156-14.117,17.227-14.332L134,275.8v-14.162
		c0-4.368-0.841-8.538-2.387-12.32l14.21,0.013c0.79,3.458,1.177,7.471,1.177,12.308V267.791z M203.834,249.578l14.385,0.067
		c-0.834,3.783-1.278,7.68-1.301,11.652c-4.395,1.266-8.417,3.406-11.918,6.239v-5.903C205,257.472,204.597,253.444,203.834,249.578
		z M418.134,345.39c-29.456,29.446-77.383,29.445-106.837,0.001c-11.112-11.112-17.232-25.888-17.232-41.604
		s6.12-30.491,17.232-41.603c17.727-17.727,46.57-17.726,64.296,0c6.571,6.57,10.189,15.304,10.189,24.592
		c0,9.286-3.618,18.017-10.191,24.587c-4.95,4.953-11.533,7.682-18.536,7.682s-13.586-2.729-18.538-7.684
		c-3.66-3.66-5.675-8.524-5.675-13.699c0-5.174,2.015-10.039,5.674-13.697c5.419-5.419,14.238-5.419,19.657,0l11.313-11.314
		c-11.657-11.656-30.626-11.655-42.284,0c-6.681,6.682-10.361,15.563-10.361,25.012s3.68,18.331,10.358,25.01
		c7.973,7.979,18.576,12.373,29.854,12.373s21.881-4.394,29.85-12.369c9.594-9.588,14.877-22.337,14.877-35.899
		c0-13.562-5.283-26.313-14.875-35.906c-11.081-11.08-25.372-17.028-39.907-17.857c-5.677-0.324-69.611,0.304-69.611,0.304
		c-8.03,0-15.748,2.559-21.733,7.206C248.784,245.858,245,253.355,245,261.633v28.685h-36.572
		c2.404-7.478,8.199-13.842,17.001-14.314l7.571-0.406v-13.964c0-22.781,19.913-41.315,44.389-41.315H289v-16h-11.611
		c-15.849,0-30.872,5.751-42.227,16.194c-4.268,3.926-7.837,8.359-10.661,13.163l-26.373-0.124
		c-9.505-17.719-28.039-29.233-50.325-29.233H135v16h12.803c23.871,0,41.197,17.376,41.197,41.315v28.685h-34h-3.795
		c2.647-9.582,10.029-14.172,16.985-14.337l7.81-0.187v-14.161c0-15.594-9.61-26.468-24.297-28.096L16,233.318v-19.61
		c0-23.942,15.43-45.828,38.395-54.461l4.994-1.877c0,0,0.877-6.096,0.995-7.504c1.212-14.93,7.811-28.752,18.58-38.922
		c8.836-8.345,19.921-13.671,31.84-15.411l-1.244,50.095l13.616-11.549c22.604-19.172,50.964-29.73,79.855-29.73
		c71.725,0,164.359,53.932,215.104,104.677C455.729,246.62,455.729,307.795,418.134,345.39z"/>
	<path d="M83.821,161.165c-16.904,0-30.657,13.753-30.657,30.657s13.752,30.656,30.657,30.656s30.657-13.752,30.657-30.656
		S100.726,161.165,83.821,161.165z M83.821,206.478c-8.082,0-14.657-6.575-14.657-14.656c0-8.082,6.575-14.657,14.657-14.657
		s14.657,6.575,14.657,14.657C98.478,199.903,91.903,206.478,83.821,206.478z"/>
</g>
<g>
</g>
<g>
</g>
<g>
</g>
<g>
</g>
<g>
</g>
<g>
</g>
<g>
</g>
<g>
</g>
<g>
</g>
<g>
</g>
<g>
</g>
<g>
</g>
<g>
</g>
<g>
</g>
<g>
</g>
</svg>
