<?xml version="1.0" standalone="no"?>
<!DOCTYPE svg PUBLIC "-//W3C//DTD SVG 20010904//EN"
 "http://www.w3.org/TR/2001/REC-SVG-20010904/DTD/svg10.dtd">
<svg version="1.0" xmlns="http://www.w3.org/2000/svg"
 width="840.000000pt" height="637.000000pt" viewBox="0 0 840.000000 637.000000"
 preserveAspectRatio="xMidYMid meet">

<g transform="translate(0.000000,637.000000) scale(0.100000,-0.100000)"
fill="#000000" stroke="none">
<path d="M2895 5963 c-22 -1 -517 -4 -1100 -6 l-1060 -3 -65 -23 c-169 -59
-329 -198 -412 -357 l-48 -91 0 -2354 0 -2354 29 -62 c95 -201 262 -344 466
-399 91 -25 2947 -39 5210 -26 1921 11 1762 4 1925 84 147 72 294 242 326 376
30 125 36 601 31 2632 -3 1298 -8 2025 -15 2062 -6 32 -29 97 -53 145 -34 71
-57 104 -123 169 -88 88 -156 131 -268 171 l-73 26 -1190 8 c-1154 7 -3499 9
-3580 2z m3965 -670 l484 -6 -40 -34 c-185 -161 -3076 -2353 -3102 -2353 -17
0 -2140 1598 -2980 2244 l-183 141 338 5 c525 8 4941 11 5483 3z m-5947 -755
c43 -30 821 -620 1238 -939 420 -321 544 -419 544 -429 0 -15 -365 -312 -1220
-996 -550 -439 -569 -454 -582 -454 -5 0 -13 30 -16 67 -9 86 -9 2773 -1 2773
3 0 20 -10 37 -22z m6612 -120 c9 -183 2 -2694 -7 -2703 -8 -8 -85 51 -558
429 -688 551 -1252 1011 -1258 1025 -1 4 15 21 35 37 91 73 815 628 1218 934
242 184 465 353 495 376 30 24 58 43 61 44 4 0 10 -64 14 -142z m-3886 -1952
c201 -150 388 -286 415 -301 37 -22 65 -29 121 -33 120 -8 155 12 581 334 259
196 358 264 383 264 19 0 72 -42 1296 -1019 1065 -849 929 -740 924 -746 -8
-8 -4489 -13 -5447 -6 l-884 6 929 742 c1067 852 1295 1032 1307 1033 4 0 173
-123 375 -274z"/>
</g>
</svg>
