<?xml version="1.0" encoding="UTF-8"?>
<svg xmlns="http://www.w3.org/2000/svg" xmlns:xlink="http://www.w3.org/1999/xlink" viewBox="0 0 48 48" width="48px" height="48px">
<g id="surface233425">
<path style=" stroke:none;fill-rule:nonzero;fill:rgb(0%,0%,0%);fill-opacity:1;" d="M 24.5 45.160156 L 7 34.820312 L 7 14.179688 L 24.5 3.839844 L 42 14.179688 L 42 34.820312 Z M 9 33.679688 L 24.5 42.839844 L 40 33.679688 L 40 15.320312 L 24.5 6.160156 L 9 15.320312 Z M 9 33.679688 "/>
<path style=" stroke:none;fill-rule:nonzero;fill:rgb(0%,0%,0%);fill-opacity:1;" d="M 28 5.5 C 28 7.433594 26.433594 9 24.5 9 C 22.566406 9 21 7.433594 21 5.5 C 21 3.566406 22.566406 2 24.5 2 C 26.433594 2 28 3.566406 28 5.5 Z M 28 5.5 "/>
<path style=" stroke:none;fill-rule:nonzero;fill:rgb(0%,0%,0%);fill-opacity:1;" d="M 28 43.5 C 28 45.433594 26.433594 47 24.5 47 C 22.566406 47 21 45.433594 21 43.5 C 21 41.566406 22.566406 40 24.5 40 C 26.433594 40 28 41.566406 28 43.5 Z M 28 43.5 "/>
<path style=" stroke:none;fill-rule:nonzero;fill:rgb(0%,0%,0%);fill-opacity:1;" d="M 12 33.5 C 12 35.433594 10.433594 37 8.5 37 C 6.566406 37 5 35.433594 5 33.5 C 5 31.566406 6.566406 30 8.5 30 C 10.433594 30 12 31.566406 12 33.5 Z M 12 33.5 "/>
<path style=" stroke:none;fill-rule:nonzero;fill:rgb(0%,0%,0%);fill-opacity:1;" d="M 44 33.5 C 44 35.433594 42.433594 37 40.5 37 C 38.566406 37 37 35.433594 37 33.5 C 37 31.566406 38.566406 30 40.5 30 C 42.433594 30 44 31.566406 44 33.5 Z M 44 33.5 "/>
<path style=" stroke:none;fill-rule:nonzero;fill:rgb(0%,0%,0%);fill-opacity:1;" d="M 12 15.5 C 12 17.433594 10.433594 19 8.5 19 C 6.566406 19 5 17.433594 5 15.5 C 5 13.566406 6.566406 12 8.5 12 C 10.433594 12 12 13.566406 12 15.5 Z M 12 15.5 "/>
<path style=" stroke:none;fill-rule:nonzero;fill:rgb(0%,0%,0%);fill-opacity:1;" d="M 44 15.5 C 44 17.433594 42.433594 19 40.5 19 C 38.566406 19 37 17.433594 37 15.5 C 37 13.566406 38.566406 12 40.5 12 C 42.433594 12 44 13.566406 44 15.5 Z M 44 15.5 "/>
<path style=" stroke:none;fill-rule:nonzero;fill:rgb(0%,0%,0%);fill-opacity:1;" d="M 42.71875 35 L 6.28125 35 L 24.5 2.976562 Z M 9.71875 33 L 39.28125 33 L 24.5 7.023438 Z M 9.71875 33 "/>
</g>
</svg>
