<?xml version="1.0" standalone="no"?>
<!DOCTYPE svg PUBLIC "-//W3C//DTD SVG 20010904//EN"
 "http://www.w3.org/TR/2001/REC-SVG-20010904/DTD/svg10.dtd">
<svg version="1.0" xmlns="http://www.w3.org/2000/svg"
 width="980.000000pt" height="980.000000pt" viewBox="0 0 980.000000 980.000000"
 preserveAspectRatio="xMidYMid meet">

<g transform="translate(0.000000,980.000000) scale(0.100000,-0.100000)"
fill="#000000" stroke="none">
<path d="M4560 9789 c-1035 -75 -1998 -463 -2800 -1128 -150 -123 -501 -475
-622 -621 -881 -1068 -1270 -2403 -1098 -3765 119 -934 501 -1801 1124 -2545
98 -117 370 -393 496 -504 1328 -1166 3158 -1531 4825 -962 895 305 1700 879
2281 1627 540 695 884 1520 993 2384 178 1410 -247 2797 -1185 3865 -112 128
-386 398 -509 501 -763 642 -1665 1026 -2665 1134 -174 19 -664 27 -840 14z
m616 -1479 c65 -11 170 -38 234 -59 787 -263 1243 -1061 1074 -1879 -97 -469
-442 -907 -880 -1118 -324 -155 -701 -199 -1049 -123 -644 142 -1129 647
-1252 1304 -27 142 -24 437 5 582 102 508 417 920 881 1153 114 57 296 116
427 139 155 27 402 28 560 1z m999 -4039 c658 -149 1139 -628 1275 -1272 31
-147 39 -378 16 -483 -32 -142 -118 -281 -236 -382 -217 -185 -514 -376 -782
-503 -1279 -606 -2772 -415 -3866 493 -122 101 -210 237 -247 381 -17 69 -20
281 -5 390 17 117 60 274 105 387 222 543 709 920 1300 1007 33 5 573 8 1200
7 l1140 -2 100 -23z"/>
</g>
</svg>
