<svg fill="#000000" xmlns="http://www.w3.org/2000/svg"  viewBox="0 0 64 64" width="64px" height="64px"><path d="M 5 4 C 3.347656 4 2 5.347656 2 7 L 2 49 C 2 50.652344 3.347656 52 5 52 L 10 52 L 10 57 C 10 58.652344 11.347656 60 13 60 L 59 60 C 60.652344 60 62 58.652344 62 57 L 62 15 C 62 13.347656 60.652344 12 59 12 L 54 12 L 54 7 C 54 5.347656 52.652344 4 51 4 Z M 5 6 L 51 6 C 51.550781 6 52 6.449219 52 7 L 52 49 C 52 49.550781 51.550781 50 51 50 L 5 50 C 4.449219 50 4 49.550781 4 49 L 4 7 C 4 6.449219 4.449219 6 5 6 Z M 54 14 L 59 14 C 59.550781 14 60 14.449219 60 15 L 60 57 C 60 57.550781 59.550781 58 59 58 L 13 58 C 12.449219 58 12 57.550781 12 57 L 12 52 L 51 52 C 52.652344 52 54 50.652344 54 49 Z M 41 16 C 40.746094 16 40.488281 16.097656 40.292969 16.292969 L 23 33.585938 L 15.707031 26.292969 C 15.316406 25.902344 14.683594 25.902344 14.292969 26.292969 C 13.902344 26.683594 13.902344 27.316406 14.292969 27.707031 L 22.292969 35.707031 C 22.488281 35.902344 22.742188 36 23 36 C 23.257813 36 23.511719 35.902344 23.707031 35.707031 L 41.707031 17.707031 C 42.097656 17.316406 42.097656 16.683594 41.707031 16.292969 C 41.511719 16.097656 41.253906 16 41 16 Z M 8 44 C 7.449219 44 7 44.449219 7 45 L 7 47 C 7 47.550781 7.449219 48 8 48 C 8.550781 48 9 47.550781 9 47 L 9 45 C 9 44.449219 8.550781 44 8 44 Z M 13 44 C 12.449219 44 12 44.449219 12 45 L 12 47 C 12 47.550781 12.449219 48 13 48 C 13.550781 48 14 47.550781 14 47 L 14 45 C 14 44.449219 13.550781 44 13 44 Z M 18 44 C 17.449219 44 17 44.449219 17 45 L 17 47 C 17 47.550781 17.449219 48 18 48 C 18.550781 48 19 47.550781 19 47 L 19 45 C 19 44.449219 18.550781 44 18 44 Z M 23 44 C 22.449219 44 22 44.449219 22 45 L 22 47 C 22 47.550781 22.449219 48 23 48 C 23.550781 48 24 47.550781 24 47 L 24 45 C 24 44.449219 23.550781 44 23 44 Z M 28 44 C 27.449219 44 27 44.449219 27 45 L 27 47 C 27 47.550781 27.449219 48 28 48 C 28.550781 48 29 47.550781 29 47 L 29 45 C 29 44.449219 28.550781 44 28 44 Z M 33 44 C 32.449219 44 32 44.449219 32 45 L 32 47 C 32 47.550781 32.449219 48 33 48 C 33.550781 48 34 47.550781 34 47 L 34 45 C 34 44.449219 33.550781 44 33 44 Z M 38 44 C 37.449219 44 37 44.449219 37 45 L 37 47 C 37 47.550781 37.449219 48 38 48 C 38.550781 48 39 47.550781 39 47 L 39 45 C 39 44.449219 38.550781 44 38 44 Z M 43 44 C 42.449219 44 42 44.449219 42 45 L 42 47 C 42 47.550781 42.449219 48 43 48 C 43.550781 48 44 47.550781 44 47 L 44 45 C 44 44.449219 43.550781 44 43 44 Z M 48 44 C 47.449219 44 47 44.449219 47 45 L 47 47 C 47 47.550781 47.449219 48 48 48 C 48.550781 48 49 47.550781 49 47 L 49 45 C 49 44.449219 48.550781 44 48 44 Z"/></svg>